<?xml version="1.0" encoding="UTF-8" standalone="no"?>
<!-- Created with Inkscape (http://www.inkscape.org/) -->

<svg
   width="140mm"
   height="140mm"
   viewBox="0 0 140 140"
   version="1.1"
   id="svg1"
   xml:space="preserve"
   xmlns="http://www.w3.org/2000/svg"
   xmlns:svg="http://www.w3.org/2000/svg"><defs
     id="defs1" /><g
     id="layer1"><g
       id="g1"
       transform="matrix(0.26458333,0,0,0.26458333,35.173952,80.339516)"><path
         d="m 137.9723,-292.52073 c 2.73553,1.38342 5.32647,2.90889 7.93848,4.51318 l 2.98316,1.75831 c 3.20509,1.89449 6.39169,3.81803 9.57934,5.74169 2.19386,1.30193 4.38919,2.60139 6.58594,3.89844 4.53098,2.67668 9.05619,5.36276 13.57812,8.05469 7.71774,4.58275 15.49155,9.06553 23.27222,13.54028 7.24346,4.16616 14.47279,8.35543 21.68872,12.56909 l 2.98169,1.74097 c 3.95123,2.30789 7.90175,4.61698 11.8523,6.92603 2.97167,1.73657 5.94371,3.47252 8.91602,5.208 0.98718,0.57646 1.97436,1.15291 2.99145,1.74683 7.29966,4.25769 14.62059,8.47757 21.94605,12.69067 10.06568,5.7915 20.06745,11.68435 30.04614,17.62427 5.72477,3.40209 11.46236,6.77851 17.23511,10.09839 0.58237,0.33494 1.16475,0.66989 1.76477,1.01498 2.76526,1.5888 5.53301,3.17308 8.30359,4.7526 2.95707,1.6933 5.89977,3.40882 8.83789,5.13476 1.52754,0.87955 1.52754,0.87955 3.08593,1.77686 0.98227,0.58797 1.96454,1.17595 2.97657,1.78174 0.87785,0.51748 1.7557,1.03495 2.66015,1.56811 3.34187,2.74895 5.00536,5.71292 5.55341,10.06607 0.11396,2.67671 0.12848,5.33818 0.11162,8.01731 0.008,1.53879 0.008,1.53879 0.0163,3.10868 0.0143,3.43618 0.007,6.87198 5e-5,10.30819 0.006,2.46402 0.0127,4.92805 0.0208,7.39207 0.0161,5.99705 0.018,11.99396 0.0128,17.99102 -0.004,4.87443 -0.003,9.74884 0.003,14.62327 7.5e-4,0.69407 10e-4,1.38814 0.002,2.10324 0.002,1.410049 0.003,2.820089 0.005,4.230129 0.0137,13.218281 0.008,26.436491 -0.003,39.654761 -0.01,12.09126 0.003,24.18237 0.0269,36.27361 0.0244,12.4190696 0.034,24.83807 0.0273,37.257159 -0.003,6.970921 -0.001,13.941721 0.0163,20.912621 0.0162,6.55325 0.0115,13.10626 -0.007,19.65952 -0.004,2.40664 -5.5e-4,4.81331 0.01,7.21993 0.0131,3.28222 0.002,6.56346 -0.016,9.84563 0.01,0.95506 0.0192,1.91012 0.0291,2.89412 -0.0639,5.74896 -0.7624,8.9056 -4.53031,13.31596 -2.27637,1.74414 -2.27637,1.74414 -4.79688,3.15625 -0.94617,0.54012 -1.89234,1.08024 -2.86719,1.63672 -1.01836,0.56332 -2.03671,1.12664 -3.08593,1.70703 -2.1825,1.23922 -4.36479,2.47881 -6.54688,3.71875 -1.11568,0.62778 -2.23137,1.25555 -3.38086,1.90235 -5.13875,2.90622 -10.22896,5.894 -15.32226,8.8789 -2.00236,1.1684 -4.00496,2.33637 -6.00782,3.50391 -3.97495,2.31861 -7.94882,4.63907 -11.92187,6.96094 -10.27564,6.00292 -20.5667,11.97703 -30.88281,17.91015 -8.9362,5.14163 -17.82661,10.35471 -26.68751,15.625 -9.93511,5.90922 -19.91651,11.73079 -29.93701,17.4939 -10.20363,5.86852 -20.37116,11.79772 -30.53369,17.73706 -3.16987,1.85113 -6.34154,3.69914 -9.51367,5.54639 -1.06976,0.62318 -2.13952,1.24636 -3.2417,1.88843 -2.02741,1.18095 -4.05506,2.36148 -6.08301,3.5415 -0.92667,0.54004 -1.85335,1.08007 -2.80811,1.63647 l -2.72607,1.57911 c -1.78187,1.05779 -3.54426,2.14905 -5.28613,3.27148 -7.64155,4.88044 -13.71939,6.39102 -22.73389,5.00391 -8.59424,-2.27589 -16.16407,-7.94644 -23.54004,-12.72266 -4.93993,-3.15153 -10.01922,-6.05296 -15.096678,-8.97559 -2.000744,-1.16539 -4.000744,-2.33206 -6,-3.5 l -3,-1.75 c -9,-5.25 -9,-5.25 -11.999512,-6.99975 -2.001581,-1.16756 -4.003208,-2.33504 -6.004883,-3.50244 -4.976209,-2.90232 -9.95161,-5.80601 -14.925293,-8.71265 -10.275639,-6.00293 -20.566699,-11.97703 -30.882809,-17.91016 -10.07507,-5.79689 -20.0846304,-11.69773 -30.07471,-17.63964 -7.73457,-4.59363 -15.50315,-9.12383 -23.30029,-13.61036 -1.06292,-0.61166 -2.12583,-1.22332 -3.22095,-1.85351 l -3.20093,-1.8418 c -6.451145,-3.71208 -12.893605,-7.43884 -19.328115,-11.17969 -0.95222,-0.55123 -1.90443,-1.10247 -2.8855,-1.67041 -2.73612,-1.59295 -5.45894,-3.20605 -8.177,-4.82959 -0.99919,-0.5891 -1.99837,-1.1782 -3.02784,-1.78515 -0.9821,-0.59684 -1.9642,-1.19367 -2.97607,-1.8086 -1.32947,-0.79954 -1.32947,-0.79954 -2.68579,-1.61523 -3.1996,-2.48043 -5.04434,-4.75856 -5.58506,-8.89069 -0.11334,-2.66772 -0.12485,-5.32004 -0.10619,-7.99015 -0.005,-1.02502 -0.009,-2.05003 -0.0142,-3.1061 -0.012,-3.4393 -0.002,-6.8782 0.007,-10.3175 0.0674,-66.7305904 -0.17511,-133.4622 -0.007,-200.19263 0.004,-2.40826 0.003,-4.81653 -0.004,-7.22478 -0.008,-3.28431 0.002,-6.56807 0.017,-9.85235 -0.007,-0.95574 -0.0134,-1.91149 -0.0203,-2.89619 0.046,-5.18859 0.47408,-8.84417 3.40123,-13.32063 2.29297,-1.84375 2.29297,-1.84375 5.1875,-3.5 0.5526,-0.32275 1.10521,-0.64549 1.67456,-0.97802 1.28915,-0.75072 2.58256,-1.49415 3.87915,-2.23194 2.54816,-1.45531 5.0796,-2.93747 7.61035,-4.42285 5.14967,-3.01964 10.30915,-6.02208 15.47119,-9.02051 5.062765,-2.94258 10.119775,-5.895 15.177245,-8.84668 2.00258,-1.16799 4.00519,-2.33596 6.00781,-3.5039 3.97495,-2.31862 7.94882,-4.63907 11.92187,-6.96094 10.27564,-6.00293 20.5666999,-11.97703 30.88282,-17.91016 8.9362,-5.14162 17.82661,-10.3547 26.6875,-15.625 9.936508,-5.91005 19.919043,-11.73293 29.941403,-17.49609 6.209868,-3.57105 12.410277,-7.15713 18.594482,-10.77246 1.96329,-1.14683 3.92828,-2.29075 5.89502,-3.43164 4.7715,-2.77032 9.52361,-5.56485 14.23431,-8.43768 2.3298,-1.41687 4.66971,-2.81649 7.01105,-4.21418 1.64986,-0.99351 3.28589,-2.00987 4.92139,-3.02685 7.28053,-4.32754 13.17868,-6.88138 21.40166,-3.63428 z"
         fill="#01121c"
         id="path1-5" /><path
         d="m -67.52671,-139.50755 c 1.40207,0.80154 1.40207,0.80154 2.83247,1.61927 1.25286,0.71611 2.50572,1.43221 3.75859,2.14831 0.61291,0.35041 1.22582,0.70081 1.85731,1.06183 4.02824,2.30228 8.060113,4.59802 12.094594,6.88934 12.889654,7.33019 25.706051,14.7621 38.4477536,22.34742 11.9345494,7.09736 23.9681354,14.019369 36.0092774,20.933833 14.34537,8.237634 28.64413,16.542302 42.86133,24.999512 10.02581,5.955194 20.117315,11.78945 30.228505,17.598144 1.36173,0.804712 1.36173,0.804712 2.75097,1.62568 3.11184,1.810064 3.11184,1.810064 6.31191,3.205724 8.17847,3.95031 8.17847,3.95031 9.9385,8.21515 0.40859,3.2927 0.42603,6.39707 0.31527,9.71346 0.007,1.23008 0.0134,2.46017 0.0203,3.72754 0.007,3.36054 -0.0384,6.71262 -0.1069,10.0719496 -0.0583,3.52188 -0.0459,7.0434806 -0.0405,10.5657305 2.3e-4,6.6693499 -0.0579,13.3367699 -0.13941,20.0055799 -0.11746,9.78172 -0.15893,19.56382 -0.18603,29.34617 -0.003,1.07807 -0.003,1.07807 -0.006,2.17793 -0.004,1.43347 -0.008,2.86694 -0.0112,4.30041 -0.0124,4.18769 -0.0459,8.37453 -0.0978,12.56192 -0.0374,3.21885 -0.0571,6.43785 -0.0809,9.65683 -0.0304,1.73246 -0.0304,1.73246 -0.0615,3.49992 -0.0461,7.79274 -0.0461,7.79274 3.30342,14.728347 2.90093,1.93395 3.89675,2.30132 7.1875,2.625 1.25812,0.12375 2.51625,0.2475 3.8125,0.375 -0.99,0.33 -1.98,0.66 -3,1 0,7.59 0,15.18 0,23 -2.31,0.66 -4.62,1.32 -7,2 -5.00471,5.04443 -4.60148,10.61459 -4.60938,17.30469 -0.0165,1.07911 -0.0331,2.15823 -0.0501,3.27005 -0.0484,3.43348 -0.0699,6.86651 -0.0905,10.30026 -0.0282,2.33336 -0.0581,4.66669 -0.0898,7 -0.0738,5.70825 -0.12551,11.41638 -0.16016,17.125 -3.97203,-1.22227 -7.41988,-2.64761 -10.99219,-4.76563 -0.93972,-0.553 -1.87945,-1.10601 -2.84765,-1.67578 -1.00161,-0.59683 -2.00321,-1.19367 -3.03516,-1.80859 -2.16397,-1.27619 -4.32804,-2.55223 -6.49219,-3.82813 -1.10311,-0.65291 -2.20623,-1.30582 -3.34277,-1.97851 -5.08398,-3.00299 -10.187325,-5.97244 -15.290065,-8.94336 -2.00011,-1.16648 -4.00011,-2.33315 -6,-3.5 -0.99,-0.5775 -1.98,-1.155 -3,-1.75 -9,-5.25 -9,-5.25 -11.99951,-6.99976 -2.00158,-1.16756 -4.00321,-2.33504 -6.00488,-3.50244 -4.97621,-2.90231 -9.95161,-5.806 -14.9253,-8.71264 C 24.267959,132.02468 13.976899,126.05057 3.660785,120.11745 -6.4003354,114.32858 -16.396781,108.43712 -26.372174,102.50197 -37.520423,95.879323 -48.751227,89.404613 -60.00084,82.956073 c -0.83354,-0.48299 -1.66708,-0.96599 -2.52587,-1.46362 -1.29705,-0.52058 -1.29705,-0.52058 -2.62029,-1.05167 -2.37971,-1.94833 -2.37971,-1.94833 -2.99495,-5.72206 -0.0211,-1.62092 -0.0142,-3.24234 0.014,-4.86316 -0.004,-0.89277 -0.009,-1.78555 -0.0129,-2.70538 -0.008,-3.00385 0.0193,-6.00631 0.0466,-9.01002 0.001,-2.1482 6.2e-4,-4.2964 -0.002,-6.4446 -0.001,-5.84282 0.028,-11.68513 0.0629,-17.52783 0.0312,-6.10189 0.0342,-12.20378 0.0401,-18.30573 0.0156,-11.5597799 0.0566,-23.11933 0.10675,-34.67901 0.0558,-13.15819 0.0834,-26.316394 0.10848,-39.474672 0.0523,-27.072087 0.14028,-54.143961 0.25162,-81.215871 z"
         fill="#524f7b"
         id="path2"
         style="fill:#fdd76b;fill-opacity:1" /><path
         d="m 328.47329,-138.50755 c 0,71.610003 0,143.2200031 0,217.000003 -8.58,4.95 -17.16,9.9 -26,15 -4.56992,2.69754 -9.13445,5.399747 -13.6875,8.124997 -9.13724,5.44312 -18.33869,10.7475 -27.6167,15.94629 -8.56199,4.81455 -17.00324,9.82295 -25.44239,14.84888 -8.73262,5.19504 -17.5175,10.29262 -26.32714,15.35571 -8.31322,4.78214 -16.59409,9.61726 -24.86377,14.47412 -10.37172,6.09067 -20.74767,12.17382 -31.17871,18.1626 -1.29424,0.74709 -2.58374,1.50245 -3.86914,2.26465 -4.80055,2.82275 -4.80055,2.82275 -7.01466,2.82275 -0.004,-0.60055 -0.007,-1.2011 -0.0111,-1.81985 -0.0419,-6.26227 -0.11126,-12.5238 -0.19647,-18.78562 -0.0282,-2.33554 -0.0494,-4.67117 -0.0635,-7.00683 -0.0215,-3.3615 -0.0681,-6.72186 -0.11962,-10.08301 -0.001,-1.04085 -0.002,-2.0817 -0.004,-3.15409 -0.11588,-5.76245 -0.34124,-9.85234 -4.60565,-14.1506 -2.31,-0.66 -4.62,-1.32 -7,-2 0,-7.59 0,-15.18 0,-23 3.96,-1.98 3.96,-1.98 8,-4 4.24129,-5.291457 3.25788,-11.668167 3.01978,-18.101317 -0.0654,-2.51894 -0.13017,-5.0379 -0.19433,-7.55687 -0.0391,-1.34587 -0.0784,-2.69173 -0.11776,-4.03759 -0.11719,-4.18384 -0.18607,-8.3676 -0.2425,-12.55265 -0.0145,-1.06272 -0.0145,-1.06272 -0.0293,-2.1469 -0.0293,-2.18137 -0.0578,-4.36275 -0.0863,-6.54412 -0.11808,-9.00259 -0.27001,-17.99983 -0.57349,-26.99829 -0.22145,-6.57648 -0.34861,-13.1475 -0.36944,-19.7277699 -0.0145,-3.47704043 -0.0741,-6.9390805 -0.24916,-10.4120501 -0.84175,-17.38894 -0.84175,-17.38894 2.84284,-24.92244 6.26383,-6.502 14.4302,-10.02062 22.62795,-13.492388 5.42043,-2.423417 10.42547,-5.498592 15.49706,-8.570112 1.98261,-1.161879 3.96678,-2.321095 5.95313,-3.476563 1.974,-1.153563 3.94796,-2.307209 5.92187,-3.460937 3.95785,-2.31332 7.91611,-4.625957 11.875,-6.9375 0.98718,-0.576453 1.97436,-1.152905 2.99146,-1.746826 7.29965,-4.257691 14.62058,-8.477572 21.94604,-12.690674 8.9362,-5.141623 17.82661,-10.354704 26.6875,-15.625003 9.92268,-5.90183 19.89102,-11.71716 29.89965,-17.47192 8.6123,-4.95225 17.19878,-9.94756 25.77491,-14.96216 1.80734,-1.05645 3.61547,-2.11156 5.42456,-3.16504 1.52183,-0.88796 3.04076,-1.78092 4.55566,-2.68066 4.62663,-2.72022 4.62663,-2.72022 6.84522,-2.72022 z"
         fill="#e9543f"
         id="path3"
         style="fill:#fdd76b;fill-opacity:1" /><path
         d="m 129.47328,-268.50755 c 4.88697,1.7231 9.17869,4.32114 13.625,6.9375 1.71739,1.00271 3.43484,2.00531 5.15235,3.00782 0.87253,0.51079 1.74507,1.02158 2.64404,1.54785 3.15464,1.84344 6.31743,3.67248 9.48145,5.49975 17.10443,9.8792 34.20219,19.77263 51.09717,30.00708 -2.63295,2.80519 -5.10182,4.82703 -8.47266,6.67188 -0.88534,0.49097 -1.77069,0.98194 -2.68286,1.48779 -0.95931,0.52481 -1.91861,1.04962 -2.90698,1.59033 -8.83256,4.90909 -17.57166,9.94822 -26.25,15.125 -12.18453,7.25763 -24.44891,14.36809 -36.74561,21.4336 -10.76368,6.18844 -21.50173,12.41934 -32.19824,18.72314 -6.05244,3.56555 -12.11453,7.1144 -18.181155,10.65576 -1.007161,0.58797 -2.014321,1.17595 -3.052002,1.78174 -5.388573,3.14146 -10.785267,6.26803 -16.194092,9.37451 -1.107788,0.63656 -2.215576,1.27311 -3.356933,1.92896 -2.206453,1.26703 -4.413797,2.53252 -6.622071,3.79638 -4.990645,2.86885 -9.939552,5.77511 -14.802246,8.85669 -0.82645,0.52183 -1.6529,1.04366 -2.504394,1.5813 -1.513518,0.96428 -3.019105,1.94118 -4.514649,2.93311 -4.883413,3.11503 -4.883413,3.11503 -7.902343,2.85156 -2.94654,-0.89255 -5.28969,-2.12016 -7.9458,-3.67847 -1.03335,-0.60143 -2.06669,-1.20286 -3.13135,-1.82251 -1.10521,-0.65283 -2.21042,-1.30566 -3.34912,-1.97827 -1.16547,-0.68157 -2.33133,-1.36247 -3.49756,-2.04272 -2.39808,-1.40026 -4.79378,-2.80446 -7.18750003,-4.21216 -4.22238037,-2.48257 -8.45613037,-4.94551 -12.68969997,-7.40894 -2.93732,-1.71094 -5.87127,-3.42756 -8.80493,-5.14477 -4.22365,-2.4695 -8.45972,-4.91617 -12.70312,-7.35157 -1.09683,-0.6322 -2.19366,-1.26441 -3.32373,-1.91577 -2.10288,-1.21161 -4.20855,-2.41841 -6.31739,-3.61963 -1.41901,-0.81972 -1.41901,-0.81972 -2.86669,-1.656 -0.83177,-0.47647 -1.66354,-0.95294 -2.52051,-1.44385 -2.413995,-1.60882 -4.297205,-3.40436 -6.276365,-5.51709 0.96933,-0.55591 0.96933,-0.55591 1.95825,-1.12305 12.523155,-7.18813 25.010995,-14.42495 37.416745,-21.81445 9.7347796,-5.7959 19.53287,-11.46455 29.38269,-17.06121 9.81127,-5.57777 19.534567,-11.29291 29.231812,-17.0672 8.774735,-5.21893 17.601909,-10.34123 26.452393,-15.43042 8.17618,-4.70189 16.327476,-9.44486 24.46924,-14.20606 5.43504,-3.17526 10.87896,-6.33431 16.33496,-9.47339 0.60244,-0.34674 1.20489,-0.69349 1.82559,-1.05075 2.9377,-1.69043 5.87657,-3.37877 8.81699,-5.06448 1.04607,-0.60135 2.09214,-1.2027 3.16992,-1.82227 0.93127,-0.53407 1.86253,-1.06815 2.82202,-1.61841 2.03056,-1.09826 2.03056,-1.09826 3.11938,-2.26831 z"
         fill="#357d5c"
         id="path4"
         style="fill:#fdd76b;fill-opacity:1" /><path
         d="m 239.47329,-205.50755 c 3.49539,1.80353 6.83792,3.81541 10.1875,5.875 1.9852,1.1974 3.97089,2.394 5.95703,3.58985 0.98951,0.59925 1.97903,1.1985 2.99853,1.81592 4.04846,2.43627 8.13612,4.80124 12.23194,7.15673 10.25072,5.9149 20.47076,11.8821 30.69091,17.84961 4.97723,2.90567 9.95568,5.80924 14.93409,8.71289 -2.87859,3.10864 -5.73103,5.19795 -9.41016,7.28516 -1.59413,0.91121 -1.59413,0.91121 -3.22046,1.84082 -1.13252,0.63905 -2.26504,1.27811 -3.43188,1.93652 -1.18016,0.67218 -2.35992,1.34504 -3.53931,2.01856 -2.36329,1.34891 -4.7282,2.69492 -7.09448,4.03857 -4.42746,2.51998 -8.83589,5.07196 -13.24121,7.63037 -1.52595,0.88428 -3.05199,1.7684 -4.57813,2.65235 -0.74057,0.42909 -1.48113,0.85819 -2.24414,1.30029 -2.26175,1.30983 -4.52432,2.61824 -6.78711,3.92627 -11.81586,6.83175 -23.60777,13.70413 -35.39453,20.58594 -2.9668,1.73158 -5.93441,3.46177 -8.90234,5.1914 -10.37032,6.04428 -20.73264,12.101909 -31.08536,18.176273 -20.73951,12.16781 -20.73951,12.16781 -30.48105,17.76514 -3.44185,1.97923 -6.85975,3.99604 -10.27344,6.02343 -1.91788,1.12645 -3.83585,2.25276 -5.75391,3.37891 -0.89525,0.53859 -1.79051,1.07717 -2.71289,1.63208 -0.83596,0.48751 -1.67191,0.97501 -2.5332,1.47729 -0.73791,0.43796 -1.47582,0.87592 -2.23609,1.32715 -2.57017,1.00503 -3.53275,0.80533 -6.08032,-0.18652 -1.51474,-0.74638 -3.00413,-1.54525 -4.47266,-2.37891 -0.88534,-0.50064 -1.77068,-1.00128 -2.68286,-1.51709 -0.9593,-0.54994 -1.91861,-1.09989 -2.90698,-1.6665 -1.01151,-0.57573 -2.02302,-1.15146 -3.06519,-1.74463 -8.90954,-5.0933 -17.7366,-10.32342 -26.55395,-15.57422 -8.258535,-4.91404 -16.554505,-9.75809 -24.880855,-14.556154 -1.11866,-0.64501 -2.23733,-1.29003 -3.38989,-1.95459 -4.97039,-2.90247 -4.97039,-2.90247 -10.04761,-5.607909 0,-0.66 0,-1.32 0,-2 0.66193,-0.38108 1.32387,-0.76216 2.00586,-1.15479 15.0354,-8.65854 30.04646,-17.35699 45.026365,-26.11132 4.98768,-2.91399 9.97786,-5.82371 14.96777,-8.73389 2.00001,-1.16664 4.00001,-2.33331 6,-3.5 4,-2.33333 8,-4.66666 12,-7 0.98984,-0.57741 1.97968,-1.15483 2.99951,-1.74975 2.00158,-1.16756 4.00321,-2.33504 6.00488,-3.50244 4.97622,-2.90232 9.95162,-5.806 14.9253,-8.71265 10.27564,-6.00293 20.56663,-11.97716 30.88282,-17.91016 10.42646,-5.99752 20.7885,-12.09742 31.1184,-18.25927 2.07564,-1.23629 4.15464,-2.46694 6.23755,-3.69092 1.811,-1.07117 3.61032,-2.16252 5.39356,-3.2793 7.24055,-4.38995 7.24055,-4.38995 12.43799,-2.39551 z"
         fill="#fdd76b"
         id="path5" /><path
         d="m 260.47329,-48.507547 c 4.16507,1.758587 6.20882,3.852016 8,8 0.57254,4.498573 0.26354,7.590411 -2.37818,11.342529 -3.81156,3.895331 -8.95152,6.244627 -13.68432,8.844971 -1.16813,0.654975 -2.33544,1.311402 -3.50196,1.969238 -2.34905,1.323103 -4.70162,2.639584 -7.05713,3.951172 -4.82436,2.701893 -9.60215,5.481363 -14.37841,8.26709 -10.59542,6.15871467 -10.59542,6.15871467 -17,5.62499967 -3.39235,-1.72817407 -5.42159,-3.02720707 -7.375,-6.31249967 -0.80863,-3.477075 -1.06271,-6.123353 -0.625,-9.6875 3.80308,-5.628265 8.4101,-8.316758 14.3125,-11.5 1.87613,-1.034398 3.75108,-2.070949 5.625,-3.109375 0.98355,-0.54334 1.9671,-1.08668 2.98046,-1.646484 3.21274,-1.818105 6.36784,-3.712955 9.51954,-5.634766 1.59461,-0.963896 1.59461,-0.963896 3.22143,-1.947265 2.064,-1.251471 4.12054,-2.515359 6.16846,-3.792969 5.72062,-3.433826 9.47284,-5.264952 16.17261,-4.369141 z"
         fill="#04121c"
         id="path6" /></g></g></svg>
